Coordinates
version=1
nRows=43
nColumns=12
inDegrees=yes

Units are S.I. units (second, meters, Newtons, ...)
Angles are in degrees

endheader
time	SC_y	SC_z	SC_x	AC_y	AC_z	AC_x	GH_y	GH_z	GH_yy	EL_x	PS_y
       0.0              -17.32         -1.368          58.73           44.9         -17.53         -13.68         -131.1          10.41         -155.6          16.59          6.069
   0.03327              -17.33         -1.367          58.72           44.9         -17.53         -13.68         -131.1          10.42         -155.5           16.6          6.079
   0.06655              -17.33         -1.366          58.72           44.9         -17.53         -13.68         -131.0          10.43         -155.5          16.61          6.089
   0.09982              -17.34         -1.365          58.71           44.9         -17.53         -13.68         -131.0          10.43         -155.4          16.62          6.099
    0.1331              -17.35         -1.363          58.71          44.89         -17.53         -13.69         -130.9          10.44         -155.4          16.63          6.111
    0.1664              -17.35         -1.362           58.7          44.89         -17.53         -13.69         -130.9          10.45         -155.4          16.64          6.123
    0.1996              -17.36         -1.361          58.69          44.89         -17.53         -13.69         -130.8          10.46         -155.3          16.65          6.135
    0.2329              -17.37         -1.359          58.69          44.89         -17.53         -13.69         -130.7          10.47         -155.3          16.66          6.149
    0.2662              -17.38         -1.358          58.68          44.88         -17.53         -13.69         -130.7          10.48         -155.2          16.67          6.164
    0.2995              -17.39         -1.356          58.67          44.88         -17.53         -13.69         -130.6          10.49         -155.2          16.68          6.179
    0.3327               -17.4         -1.355          58.66          44.88         -17.53         -13.69         -130.5           10.5         -155.1           16.7          6.196
     0.366              -17.41         -1.353          58.65          44.87         -17.53         -13.69         -130.4          10.51         -155.0          16.71          6.214
    0.3993              -17.42         -1.351          58.64          44.87         -17.53          -13.7         -130.3          10.52         -155.0          16.73          6.234
    0.4326              -17.44         -1.348          58.63          44.86         -17.53          -13.7         -130.2          10.54         -154.9          16.74          6.255
    0.4658              -17.45         -1.346          58.62          44.86         -17.53          -13.7         -130.1          10.55         -154.8          16.76          6.278
    0.4991              -17.47         -1.344           58.6          44.85         -17.53          -13.7         -130.0          10.57         -154.7          16.78          6.303
    0.5324              -17.48         -1.341          58.59          44.85         -17.53          -13.7         -129.9          10.59         -154.6           16.8           6.33
    0.5657               -17.5         -1.338          58.57          44.84         -17.53         -13.71         -129.8          10.61         -154.5          16.83          6.359
    0.5989              -17.52         -1.334          58.55          44.83         -17.53         -13.71         -129.6          10.63         -154.4          16.85          6.392
    0.6322              -17.54         -1.331          58.54          44.83         -17.53         -13.71         -129.4          10.65         -154.3          16.88          6.427
    0.6655              -17.57         -1.327          58.51          44.82         -17.53         -13.71         -129.3          10.68         -154.1          16.91          6.465
    0.6988              -17.59         -1.323          58.49          44.81         -17.53         -13.72         -129.1           10.7         -154.0          16.94          6.508
     0.732              -17.62         -1.318          58.47           44.8         -17.53         -13.72         -128.8          10.73         -153.8          16.98          6.555
    0.7653              -17.66         -1.312          58.44          44.79         -17.53         -13.73         -128.6          10.77         -153.6          17.02          6.607
    0.7986              -17.69         -1.306          58.41          44.78         -17.53         -13.73         -128.3          10.81         -153.4          17.07          6.665
    0.8319              -17.73           -1.3          58.37          44.76         -17.53         -13.74         -128.0          10.85         -153.2          17.12          6.729
    0.8651              -17.78         -1.292          58.33          44.75         -17.53         -13.74         -127.7           10.9         -152.9          17.18          6.801
    0.8984              -17.83         -1.284          58.29          44.73         -17.53         -13.75         -127.3          10.95         -152.6          17.24          6.883
    0.9317              -17.89         -1.275          58.24          44.71         -17.53         -13.76         -126.9          11.01         -152.3          17.32          6.974
     0.965              -17.95         -1.264          58.18          44.69         -17.53         -13.76         -126.4          11.08         -151.9           17.4          7.079
    0.9982              -18.03         -1.252          58.12          44.66         -17.52         -13.77         -125.9          11.16         -151.5           17.5          7.198
     1.032              -18.11         -1.238          58.05          44.63         -17.52         -13.79         -125.2          11.25         -151.0           17.6          7.334
     1.065              -18.21         -1.221          57.96           44.6         -17.52          -13.8         -124.5          11.36         -150.5          17.73          7.492
     1.098              -18.32         -1.203          57.86          44.56         -17.52         -13.81         -123.6          11.48         -149.8          17.88          7.675
     1.131              -18.46         -1.181          57.75          44.51         -17.52         -13.83         -122.7          11.62         -149.0          18.05           7.89
     1.165              -18.62         -1.155          57.61          44.46         -17.52         -13.85         -121.5          11.79         -148.1          18.25          8.143
     1.198               -18.8         -1.124          57.45           44.4         -17.52         -13.88         -120.1          11.98         -147.0          18.49          8.443
     1.231              -19.03         -1.087          57.25          44.32         -17.52         -13.91         -118.4          12.22         -145.8          18.78          8.803
     1.264               -19.3         -1.042          57.02          44.23         -17.52         -13.94         -116.4          12.51         -144.2          19.13          9.239
     1.298              -19.63        -0.9872          56.73          44.11         -17.52         -13.99         -113.9          12.86         -142.3          19.55          9.771
     1.331              -20.04        -0.9197          56.38          43.97         -17.52         -14.04         -110.9           13.3         -139.9          20.07          10.43
     1.364              -20.55        -0.8356          55.93           43.8         -17.52         -14.11         -107.1          13.84         -137.0          20.73          11.25
     1.398               -21.2        -0.7296          55.38          43.58         -17.52         -14.19         -102.3          14.52         -133.3          21.55          12.28
